<svg width="12" height="20" viewBox="0 0 12 20" fill="none" xmlns="http://www.w3.org/2000/svg">
<path fill-rule="evenodd" clip-rule="evenodd" d="M0.968387 0.469364C1.03806 0.399519 1.12082 0.344105 1.21194 0.306295C1.30305 0.268486 1.40074 0.249023 1.49939 0.249023C1.59804 0.249023 1.69572 0.268486 1.78684 0.306295C1.87796 0.344105 1.96072 0.399519 2.03039 0.469364L11.0304 9.46936C11.1002 9.53903 11.1556 9.6218 11.1935 9.71291C11.2313 9.80403 11.2507 9.90171 11.2507 10.0004C11.2507 10.099 11.2313 10.1967 11.1935 10.2878C11.1556 10.3789 11.1002 10.4617 11.0304 10.5314L2.03039 19.5314C1.88956 19.6722 1.69855 19.7513 1.49939 19.7513C1.30022 19.7513 1.10922 19.6722 0.968387 19.5314C0.827557 19.3905 0.74844 19.1995 0.74844 19.0004C0.74844 18.8012 0.827557 18.6102 0.968387 18.4694L9.43889 10.0004L0.968387 1.53136C0.898542 1.4617 0.843128 1.37893 0.805318 1.28781C0.767508 1.1967 0.748047 1.09902 0.748047 1.00036C0.748047 0.901713 0.767508 0.804031 0.805318 0.712914C0.843128 0.621796 0.898542 0.539033 0.968387 0.469364Z" fill="#DEE2E6"/>
</svg>
