<svg width="12" height="20" viewBox="0 0 12 20" fill="none" xmlns="http://www.w3.org/2000/svg">
<path fill-rule="evenodd" clip-rule="evenodd" d="M11.0304 0.469364C11.1002 0.539033 11.1556 0.621796 11.1935 0.712914C11.2313 0.804031 11.2507 0.901713 11.2507 1.00036C11.2507 1.09902 11.2313 1.1967 11.1935 1.28781C11.1556 1.37893 11.1002 1.4617 11.0304 1.53136L2.55989 10.0004L11.0304 18.4694C11.1712 18.6102 11.2503 18.8012 11.2503 19.0004C11.2503 19.1995 11.1712 19.3905 11.0304 19.5314C10.8896 19.6722 10.6986 19.7513 10.4994 19.7513C10.3002 19.7513 10.1092 19.6722 9.96839 19.5314L0.968387 10.5314C0.898542 10.4617 0.843128 10.3789 0.805318 10.2878C0.767508 10.1967 0.748047 10.099 0.748047 10.0004C0.748047 9.90171 0.767508 9.80403 0.805318 9.71291C0.843128 9.6218 0.898542 9.53903 0.968387 9.46936L9.96839 0.469364C10.0381 0.399519 10.1208 0.344105 10.2119 0.306295C10.3031 0.268486 10.4007 0.249023 10.4994 0.249023C10.598 0.249023 10.6957 0.268486 10.7868 0.306295C10.878 0.344105 10.9607 0.399519 11.0304 0.469364Z" fill="#DEE2E6"/>
</svg>
