<svg width="16" height="16" viewBox="0 0 16 16" fill="none" xmlns="http://www.w3.org/2000/svg">
<path d="M7.99995 0L9.66895 0.864L11.5269 1.146L12.3689 2.826L13.7059 4.146L13.3999 6L13.7059 7.854L12.3689 9.174L11.5269 10.854L9.66895 11.136L7.99995 12L6.33095 11.136L4.47295 10.854L3.63095 9.174L2.29395 7.854L2.59995 6L2.29395 4.146L3.63095 2.826L4.47295 1.146L6.33095 0.864L7.99995 0Z" fill="#EFC457"/>
<path d="M4 11.7939V15.9999L8 14.9999L12 15.9999V11.7939L9.982 12.0999L8 13.1259L6.018 12.0999L4 11.7939Z" fill="#EFC457"/>
</svg>
