<svg width="24" height="22" viewBox="0 0 24 22" fill="none" xmlns="http://www.w3.org/2000/svg">
<path fill-rule="evenodd" clip-rule="evenodd" d="M16.4415 18.5474C16.8693 18.0915 17.1432 17.5128 17.2245 16.8929L21.8895 18.9659C22.1178 19.0677 22.368 19.1107 22.6172 19.0912C22.8664 19.0717 23.1068 18.9902 23.3165 18.8541C23.5262 18.718 23.6986 18.5317 23.8179 18.3121C23.9373 18.0924 23.9999 17.8464 24 17.5964V6.40344C23.9998 6.15365 23.9372 5.90788 23.8179 5.68842C23.6986 5.46895 23.5264 5.28275 23.3169 5.14672C23.1074 5.01068 22.8673 4.92911 22.6183 4.90942C22.3693 4.88973 22.1193 4.93253 21.891 5.03394L17.2245 7.10694C17.1292 6.38557 16.7749 5.72344 16.2277 5.24383C15.6805 4.76423 14.9776 4.49986 14.25 4.49994H6.408L7.479 5.99994H14.25C14.6478 5.99994 15.0294 6.15798 15.3107 6.43928C15.592 6.72059 15.75 7.10212 15.75 7.49994V16.4999C15.7503 16.7738 15.6756 17.0425 15.534 17.2769L16.4415 18.5474ZM2.142 6.26994C1.94376 6.40803 1.78185 6.59199 1.67007 6.80616C1.55828 7.02033 1.49994 7.25835 1.5 7.49994V16.4999C1.5 16.8978 1.65804 17.2793 1.93934 17.5606C2.22064 17.8419 2.60218 17.9999 3 17.9999H10.521L11.592 19.4999H3C2.20435 19.4999 1.44129 19.1839 0.87868 18.6213C0.316071 18.0587 0 17.2956 0 16.4999V7.49994C0 6.48744 0.501 5.59194 1.2705 5.04894L2.1405 6.26994H2.142ZM22.5 17.5949L17.25 15.2624V8.73744L22.5 6.40344V17.5964V17.5949ZM15.8895 22.9349L0.8895 1.93494L2.1105 1.06494L17.1105 22.0649L15.8895 22.9349Z" fill="currentColor"/>
</svg>
