<svg width="21" height="20" viewBox="0 0 21 20" fill="none" xmlns="http://www.w3.org/2000/svg">
<path d="M9.55864 6.07515L3.56364 12.9264C2.85614 13.7352 3.43114 15.0002 4.50489 15.0002H16.4949C16.7352 15.0004 16.9705 14.9313 17.1725 14.8012C17.3746 14.6712 17.5349 14.4856 17.6342 14.2668C17.7335 14.048 17.7677 13.8052 17.7325 13.5674C17.6974 13.3297 17.5945 13.1071 17.4361 12.9264L11.4411 6.0764C11.3238 5.94214 11.1791 5.83453 11.0168 5.7608C10.8544 5.68707 10.6782 5.64893 10.4999 5.64893C10.3216 5.64893 10.1453 5.68707 9.98301 5.7608C9.82066 5.83453 9.67597 5.94214 9.55864 6.0764V6.07515Z" fill="#6C757D"/>
</svg>
