<svg width="21" height="20" viewBox="0 0 21 20" fill="none" xmlns="http://www.w3.org/2000/svg">
<path d="M9.55876 13.925L3.56376 7.0725C2.85626 6.26625 3.43126 5 4.50501 5H16.495C16.7353 4.99979 16.9706 5.06886 17.1727 5.19893C17.3747 5.32899 17.535 5.51455 17.6343 5.73337C17.7336 5.95219 17.7678 6.195 17.7327 6.43272C17.6975 6.67045 17.5946 6.89301 17.4363 7.07375L11.4413 13.9237C11.3239 14.058 11.1792 14.1656 11.0169 14.2393C10.8546 14.3131 10.6783 14.3512 10.5 14.3512C10.3217 14.3512 10.1455 14.3131 9.98313 14.2393C9.82078 14.1656 9.67609 14.058 9.55876 13.9237V13.925Z" fill="#6C757D"/>
</svg>
