<svg width="24" height="24" viewBox="0 0 24 24" fill="none" xmlns="http://www.w3.org/2000/svg">
<path fill-rule="evenodd" clip-rule="evenodd" d="M4.017 17.841C4.1727 17.9973 4.292 18.186 4.36641 18.3937C4.44082 18.6014 4.46851 18.8229 4.4475 19.0425C4.34208 20.0589 4.14221 21.0632 3.8505 22.0425C5.943 21.558 7.221 20.997 7.8015 20.703C8.13076 20.5362 8.50993 20.4967 8.8665 20.592C9.88865 20.8645 10.9421 21.0017 12 21C17.994 21 22.5 16.7895 22.5 12C22.5 7.212 17.994 3 12 3C6.006 3 1.5 7.212 1.5 12C1.5 14.202 2.4255 16.245 4.017 17.841ZM3.2775 23.6985C2.9221 23.769 2.56555 23.8335 2.208 23.892C1.908 23.94 1.68 23.628 1.7985 23.349C1.93169 23.0349 2.05376 22.7162 2.1645 22.3935L2.169 22.3785C2.541 21.2985 2.844 20.0565 2.955 18.9C1.1145 17.055 0 14.64 0 12C0 6.201 5.373 1.5 12 1.5C18.627 1.5 24 6.201 24 12C24 17.799 18.627 22.5 12 22.5C10.8115 22.5016 9.62788 22.3473 8.4795 22.041C7.6995 22.4355 6.021 23.154 3.2775 23.6985Z" fill="#DEE2E6"/>
<path d="M7.5 12C7.5 12.3978 7.34196 12.7794 7.06066 13.0607C6.77936 13.342 6.39782 13.5 6 13.5C5.60218 13.5 5.22064 13.342 4.93934 13.0607C4.65804 12.7794 4.5 12.3978 4.5 12C4.5 11.6022 4.65804 11.2206 4.93934 10.9393C5.22064 10.658 5.60218 10.5 6 10.5C6.39782 10.5 6.77936 10.658 7.06066 10.9393C7.34196 11.2206 7.5 11.6022 7.5 12ZM13.5 12C13.5 12.3978 13.342 12.7794 13.0607 13.0607C12.7794 13.342 12.3978 13.5 12 13.5C11.6022 13.5 11.2206 13.342 10.9393 13.0607C10.658 12.7794 10.5 12.3978 10.5 12C10.5 11.6022 10.658 11.2206 10.9393 10.9393C11.2206 10.658 11.6022 10.5 12 10.5C12.3978 10.5 12.7794 10.658 13.0607 10.9393C13.342 11.2206 13.5 11.6022 13.5 12ZM19.5 12C19.5 12.3978 19.342 12.7794 19.0607 13.0607C18.7794 13.342 18.3978 13.5 18 13.5C17.6022 13.5 17.2206 13.342 16.9393 13.0607C16.658 12.7794 16.5 12.3978 16.5 12C16.5 11.6022 16.658 11.2206 16.9393 10.9393C17.2206 10.658 17.6022 10.5 18 10.5C18.3978 10.5 18.7794 10.658 19.0607 10.9393C19.342 11.2206 19.5 11.6022 19.5 12Z" fill="#DEE2E6"/>
</svg>
