<svg width="23" height="23" viewBox="0 0 24 20" fill="none" xmlns="http://www.w3.org/2000/svg">
<path fill-rule="evenodd" clip-rule="evenodd" d="M23.0305 4.46888C23.1003 4.53854 23.1557 4.62131 23.1936 4.71243C23.2314 4.80354 23.2508 4.90122 23.2508 4.99988C23.2508 5.09853 23.2314 5.19621 23.1936 5.28733C23.1557 5.37844 23.1003 5.46121 23.0305 5.53088L12.5305 16.0309C12.4608 16.1007 12.3781 16.1561 12.2869 16.1939C12.1958 16.2318 12.0981 16.2512 11.9995 16.2512C11.9008 16.2512 11.8032 16.2318 11.712 16.1939C11.6209 16.1561 11.5382 16.1007 11.4685 16.0309L6.96848 11.5309C6.89875 11.4611 6.84344 11.3784 6.8057 11.2873C6.76796 11.1961 6.74854 11.0985 6.74854 10.9999C6.74854 10.9013 6.76796 10.8036 6.8057 10.7125C6.84344 10.6214 6.89875 10.5386 6.96848 10.4689C7.03821 10.3991 7.121 10.3438 7.21211 10.3061C7.30322 10.2684 7.40087 10.2489 7.49948 10.2489C7.5981 10.2489 7.69575 10.2684 7.78686 10.3061C7.87797 10.3438 7.96075 10.3991 8.03048 10.4689L11.9995 14.4394L21.9685 4.46888C22.0382 4.39903 22.1209 4.34362 22.212 4.30581C22.3032 4.268 22.4008 4.24854 22.4995 4.24854C22.5981 4.24854 22.6958 4.268 22.7869 4.30581C22.878 4.34362 22.9608 4.39903 23.0305 4.46888Z" fill="#DEE2E6"/>
<path fill-rule="evenodd" clip-rule="evenodd" d="M12 4.25029C10.3683 4.25029 8.77326 4.73414 7.41656 5.64067C6.05985 6.54719 5.00243 7.83566 4.37801 9.34315C3.75358 10.8506 3.59021 12.5094 3.90854 14.1098C4.22686 15.7101 5.0126 17.1801 6.16638 18.3339C7.32017 19.4877 8.79018 20.2734 10.3905 20.5918C11.9909 20.9101 13.6497 20.7467 15.1572 20.1223C16.6646 19.4979 17.9531 18.4404 18.8596 17.0837C19.7662 15.727 20.25 14.132 20.25 12.5003C20.25 12.3014 20.329 12.1106 20.4697 11.97C20.6103 11.8293 20.8011 11.7503 21 11.7503C21.1989 11.7503 21.3897 11.8293 21.5303 11.97C21.671 12.1106 21.75 12.3014 21.75 12.5003C21.7497 14.6465 21.0413 16.7327 19.7345 18.4353C18.4278 20.1379 16.5958 21.3618 14.5226 21.9171C12.4494 22.4723 10.2509 22.3281 8.26813 21.5066C6.28531 20.6851 4.62896 19.2323 3.55595 17.3735C2.48294 15.5147 2.05324 13.3538 2.33349 11.2259C2.61373 9.09806 3.58826 7.12211 5.10594 5.60452C6.62362 4.08694 8.59964 3.11254 10.7275 2.83243C12.8554 2.55232 15.0163 2.98216 16.875 4.05529C16.9646 4.10218 17.0439 4.16671 17.1079 4.245C17.1719 4.3233 17.2195 4.41374 17.2477 4.51089C17.2759 4.60803 17.2841 4.70988 17.2719 4.81029C17.2597 4.9107 17.2273 5.00761 17.1767 5.09519C17.1261 5.18276 17.0583 5.25919 16.9773 5.31988C16.8964 5.38056 16.8041 5.42425 16.7058 5.44832C16.6076 5.47238 16.5055 5.47633 16.4056 5.45991C16.3058 5.44349 16.2104 5.40705 16.125 5.35279C14.8714 4.62783 13.4482 4.24746 12 4.25029Z" fill="#DEE2E6"/>
</svg>
