<svg width="24" height="24" viewBox="0 0 24 24" fill="none" xmlns="http://www.w3.org/2000/svg">
<g clip-path="url(#clip0_49_758)">
<path fill-rule="evenodd" clip-rule="evenodd" d="M1.5 23.25C1.5 23.0511 1.57902 22.8603 1.71967 22.7197C1.86032 22.579 2.05109 22.5 2.25 22.5H21.75C21.9489 22.5 22.1397 22.579 22.2803 22.7197C22.421 22.8603 22.5 23.0511 22.5 23.25C22.5 23.4489 22.421 23.6397 22.2803 23.7803C22.1397 23.921 21.9489 24 21.75 24H2.25C2.05109 24 1.86032 23.921 1.71967 23.7803C1.57902 23.6397 1.5 23.4489 1.5 23.25ZM17.25 3H16.5V1.5H17.25C17.8467 1.5 18.419 1.73705 18.841 2.15901C19.2629 2.58097 19.5 3.15326 19.5 3.75V22.5H18V3.75C18 3.55109 17.921 3.36032 17.7803 3.21967C17.6397 3.07902 17.4489 3 17.25 3Z" fill="#DEE2E6"/>
<path fill-rule="evenodd" clip-rule="evenodd" d="M16.242 0.183033C16.3231 0.253538 16.3881 0.340654 16.4327 0.43848C16.4772 0.536306 16.5001 0.642556 16.5 0.750033V22.5H15V1.61553L6 2.90103V22.5H4.5V2.25003C4.50003 2.06933 4.56529 1.89471 4.6838 1.7583C4.8023 1.62188 4.96608 1.53283 5.145 1.50753L15.645 0.00753321C15.7513 -0.00764386 15.8596 0.000170158 15.9626 0.0304471C16.0656 0.0607241 16.1608 0.112758 16.242 0.183033Z" fill="#DEE2E6"/>
<path d="M12 13.5C12 14.328 12.336 15 12.75 15C13.164 15 13.5 14.328 13.5 13.5C13.5 12.672 13.164 12 12.75 12C12.336 12 12 12.672 12 13.5Z" fill="#DEE2E6"/>
</g>
<defs>
<clipPath id="clip0_49_758">
<rect width="24" height="24" fill="white"/>
</clipPath>
</defs>
</svg>
