<svg width="100%" height="100%" viewBox="0 0 24 24" fill="none" xmlns="http://www.w3.org/2000/svg">
<g clip-path="url(#clip0_1315_1207)">
<path fill-rule="evenodd" clip-rule="evenodd" d="M12 22.5C14.7848 22.5 17.4555 21.3938 19.4246 19.4246C21.3938 17.4555 22.5 14.7848 22.5 12C22.5 9.21523 21.3938 6.54451 19.4246 4.57538C17.4555 2.60625 14.7848 1.5 12 1.5C9.21523 1.5 6.54451 2.60625 4.57538 4.57538C2.60625 6.54451 1.5 9.21523 1.5 12C1.5 14.7848 2.60625 17.4555 4.57538 19.4246C6.54451 21.3938 9.21523 22.5 12 22.5ZM12 24C15.1826 24 18.2348 22.7357 20.4853 20.4853C22.7357 18.2348 24 15.1826 24 12C24 8.8174 22.7357 5.76516 20.4853 3.51472C18.2348 1.26428 15.1826 0 12 0C8.8174 0 5.76516 1.26428 3.51472 3.51472C1.26428 5.76516 0 8.8174 0 12C0 15.1826 1.26428 18.2348 3.51472 20.4853C5.76516 22.7357 8.8174 24 12 24Z" fill="black"/>
<path fill-rule="evenodd" clip-rule="evenodd" d="M13.7203 7.71888C13.79 7.64903 13.8728 7.59362 13.9639 7.55581C14.055 7.518 14.1527 7.49854 14.2513 7.49854C14.35 7.49854 14.4477 7.518 14.5388 7.55581C14.6299 7.59362 14.7127 7.64903 14.7823 7.71888L15.7513 8.68938L16.7203 7.71888C16.8612 7.57805 17.0522 7.49893 17.2513 7.49893C17.4505 7.49893 17.6415 7.57805 17.7823 7.71888C17.9232 7.85971 18.0023 8.05071 18.0023 8.24988C18.0023 8.44904 17.9232 8.64005 17.7823 8.78088L16.8118 9.74988L17.7823 10.7189C17.9232 10.8597 18.0023 11.0507 18.0023 11.2499C18.0023 11.449 17.9232 11.64 17.7823 11.7809C17.6415 11.9217 17.4505 12.0008 17.2513 12.0008C17.0522 12.0008 16.8612 11.9217 16.7203 11.7809L15.7513 10.8104L14.7823 11.7809C14.7126 11.8506 14.6298 11.9059 14.5387 11.9437C14.4476 11.9814 14.35 12.0008 14.2513 12.0008C14.1527 12.0008 14.0551 11.9814 13.964 11.9437C13.8729 11.9059 13.7901 11.8506 13.7203 11.7809C13.6506 11.7111 13.5953 11.6284 13.5576 11.5373C13.5198 11.4461 13.5004 11.3485 13.5004 11.2499C13.5004 11.1513 13.5198 11.0536 13.5576 10.9625C13.5953 10.8714 13.6506 10.7886 13.7203 10.7189L14.6908 9.74988L13.7203 8.78088C13.6505 8.71121 13.5951 8.62844 13.5573 8.53733C13.5195 8.44621 13.5 8.34853 13.5 8.24988C13.5 8.15122 13.5195 8.05354 13.5573 7.96242C13.5951 7.87131 13.6505 7.78854 13.7203 7.71888ZM6.22034 7.71888C6.29001 7.64903 6.37277 7.59362 6.46389 7.55581C6.55501 7.518 6.65269 7.49854 6.75134 7.49854C6.84999 7.49854 6.94767 7.518 7.03879 7.55581C7.12991 7.59362 7.21267 7.64903 7.28234 7.71888L8.25134 8.68938L9.22034 7.71888C9.29007 7.64914 9.37286 7.59383 9.46397 7.55609C9.55507 7.51835 9.65272 7.49893 9.75134 7.49893C9.84996 7.49893 9.94761 7.51835 10.0387 7.55609C10.1298 7.59383 10.2126 7.64914 10.2823 7.71888C10.3521 7.78861 10.4074 7.87139 10.4451 7.9625C10.4829 8.05361 10.5023 8.15126 10.5023 8.24988C10.5023 8.34849 10.4829 8.44614 10.4451 8.53725C10.4074 8.62836 10.3521 8.71114 10.2823 8.78088L9.31184 9.74988L10.2823 10.7189C10.3521 10.7886 10.4074 10.8714 10.4451 10.9625C10.4829 11.0536 10.5023 11.1513 10.5023 11.2499C10.5023 11.3485 10.4829 11.4461 10.4451 11.5373C10.4074 11.6284 10.3521 11.7111 10.2823 11.7809C10.2126 11.8506 10.1298 11.9059 10.0387 11.9437C9.94761 11.9814 9.84996 12.0008 9.75134 12.0008C9.65272 12.0008 9.55507 11.9814 9.46397 11.9437C9.37286 11.9059 9.29007 11.8506 9.22034 11.7809L8.25134 10.8104L7.28234 11.7809C7.21261 11.8506 7.12983 11.9059 7.03872 11.9437C6.94761 11.9814 6.84996 12.0008 6.75134 12.0008C6.65272 12.0008 6.55507 11.9814 6.46397 11.9437C6.37286 11.9059 6.29007 11.8506 6.22034 11.7809C6.15061 11.7111 6.09529 11.6284 6.05756 11.5373C6.01982 11.4461 6.00039 11.3485 6.00039 11.2499C6.00039 11.1513 6.01982 11.0536 6.05756 10.9625C6.09529 10.8714 6.15061 10.7886 6.22034 10.7189L7.19084 9.74988L6.22034 8.78088C6.1505 8.71121 6.09508 8.62844 6.05727 8.53733C6.01946 8.44621 6 8.34853 6 8.24988C6 8.15122 6.01946 8.05354 6.05727 7.96242C6.09508 7.87131 6.1505 7.78854 6.22034 7.71888Z" fill="black"/>
<path d="M15 16.5C15 17.2956 14.6839 18.0587 14.1213 18.6213C13.5587 19.1839 12.7956 19.5 12 19.5C11.2044 19.5 10.4413 19.1839 9.87868 18.6213C9.31607 18.0587 9 17.2956 9 16.5C9 15.7044 9.31607 14.9413 9.87868 14.3787C10.4413 13.8161 11.2044 13.5 12 13.5C12.7956 13.5 13.5587 13.8161 14.1213 14.3787C14.6839 14.9413 15 15.7044 15 16.5Z" fill="black"/>
</g>
<defs>
<clipPath id="clip0_1315_1207">
<rect width="24" height="24" fill="white"/>
</clipPath>
</defs>
</svg>
