<svg width="13" height="18" viewBox="0 0 13 18" fill="none" xmlns="http://www.w3.org/2000/svg">
<path d="M6.585 15.9722C6.57134 16.0616 6.56383 16.1518 6.5625 16.2422C6.5625 16.6997 6.8775 17.0042 7.3125 17.0042C7.7115 17.0042 8.0505 16.7462 8.145 16.2887L8.976 12.2342H10.782C11.4135 12.2342 11.7075 11.8832 11.7075 11.4137C11.7075 10.9457 11.4255 10.6187 10.782 10.6187H9.3045L10.0785 6.83268H11.976C12.621 6.83268 12.903 6.49218 12.903 6.01218C12.903 5.54268 12.621 5.22618 11.976 5.22618H10.407L11.121 1.77018C11.1354 1.68892 11.1434 1.60668 11.145 1.52418C11.1462 1.4222 11.127 1.32101 11.0885 1.22656C11.0501 1.13211 10.9931 1.0463 10.921 0.974188C10.8489 0.902073 10.7631 0.845106 10.6686 0.806637C10.5742 0.768167 10.473 0.748971 10.371 0.750178C10.1822 0.746575 9.99804 0.809063 9.8504 0.92684C9.70277 1.04462 9.60094 1.21028 9.5625 1.39518L8.778 5.22618H5.4255L6.141 1.77018C6.153 1.71018 6.1635 1.59318 6.1635 1.52418C6.16433 1.42142 6.14452 1.31953 6.10526 1.22456C6.06599 1.12959 6.00807 1.04347 5.93491 0.971296C5.86176 0.89912 5.77486 0.842361 5.67937 0.804379C5.58388 0.766398 5.48174 0.747967 5.379 0.750178C5.19215 0.749091 5.0107 0.812755 4.86549 0.930344C4.72028 1.04793 4.62028 1.21219 4.5825 1.39518L3.795 5.22618H2.121C1.476 5.22618 1.1955 5.55618 1.1955 6.02418C1.1955 6.49218 1.476 6.83268 2.121 6.83268H3.48L2.7075 10.6172H0.9135C0.282 10.6172 0 10.9457 0 11.4137C0 11.8832 0.282 12.2342 0.915 12.2342H2.379L1.605 15.9722C1.593 16.0322 1.5825 16.1597 1.5825 16.2422C1.5825 16.6997 1.8975 17.0042 2.3325 17.0042C2.73 17.0042 3.0705 16.7462 3.1635 16.2887L3.996 12.2342H7.359L6.5865 15.9722H6.585ZM5.085 6.80868H8.484L7.7115 10.6532H4.2885L5.0865 6.80868H5.085Z" fill="#E9ECEF"/>
</svg>
