<svg width="20" height="20" viewBox="0 0 20 20" fill="none" xmlns="http://www.w3.org/2000/svg">
<path fill-rule="evenodd" clip-rule="evenodd" d="M16.4728 2.5H2.35514C2.04312 2.5 1.74388 2.6317 1.52325 2.86612C1.30262 3.10054 1.17867 3.41848 1.17867 3.75V15L4.29161 12.0575C4.38777 11.9557 4.5141 11.8924 4.64918 11.8783C4.78427 11.8641 4.9198 11.9001 5.03279 11.98L8.1622 14.1963L12.5269 9.55875C12.6141 9.46597 12.7266 9.4047 12.8485 9.38361C12.9703 9.36252 13.0953 9.38269 13.2057 9.44125L17.6493 11.875V3.75C17.6493 3.41848 17.5253 3.10054 17.3047 2.86612C17.084 2.6317 16.7848 2.5 16.4728 2.5V2.5ZM2.35514 1.25C1.7311 1.25 1.13262 1.51339 0.691358 1.98223C0.250096 2.45107 0.00219727 3.08696 0.00219727 3.75V16.25C0.00219727 16.913 0.250096 17.5489 0.691358 18.0178C1.13262 18.4866 1.7311 18.75 2.35514 18.75H16.4728C16.7818 18.75 17.0877 18.6853 17.3732 18.5597C17.6587 18.4341 17.9181 18.2499 18.1366 18.0178C18.3551 17.7856 18.5284 17.51 18.6466 17.2067C18.7649 16.9034 18.8257 16.5783 18.8257 16.25V3.75C18.8257 3.08696 18.5778 2.45107 18.1366 1.98223C17.6953 1.51339 17.0968 1.25 16.4728 1.25H2.35514V1.25ZM7.06102 6.875C7.06102 7.12123 7.01538 7.36505 6.92669 7.59253C6.83801 7.82002 6.70802 8.02672 6.54415 8.20083C6.38028 8.37494 6.18574 8.51305 5.97164 8.60727C5.75753 8.7015 5.52806 8.75 5.29631 8.75C5.06457 8.75 4.83509 8.7015 4.62099 8.60727C4.40689 8.51305 4.21235 8.37494 4.04848 8.20083C3.88461 8.02672 3.75462 7.82002 3.66594 7.59253C3.57725 7.36505 3.53161 7.12123 3.53161 6.875C3.53161 6.37772 3.71753 5.90081 4.04848 5.54917C4.37943 5.19754 4.82829 5 5.29631 5C5.76434 5 6.2132 5.19754 6.54415 5.54917C6.8751 5.90081 7.06102 6.37772 7.06102 6.875V6.875Z" fill="#495057"/>
</svg>
