<svg width="100%" height="100%" viewBox="0 0 24 24" fill="none" xmlns="http://www.w3.org/2000/svg">
<path d="M3.75 13.5C3.75 12.7044 4.06607 11.9413 4.62868 11.3787C5.19129 10.8161 5.95435 10.5 6.75 10.5H17.25C18.0456 10.5 18.8087 10.8161 19.3713 11.3787C19.9339 11.9413 20.25 12.7044 20.25 13.5V21C20.25 21.7956 19.9339 22.5587 19.3713 23.1213C18.8087 23.6839 18.0456 24 17.25 24H6.75C5.95435 24 5.19129 23.6839 4.62868 23.1213C4.06607 22.5587 3.75 21.7956 3.75 21V13.5Z" fill="#495057"/>
<path fill-rule="evenodd" clip-rule="evenodd" d="M6.75 6C6.75 4.60761 7.30312 3.27226 8.28769 2.28769C9.27226 1.30312 10.6076 0.75 12 0.75C13.3924 0.75 14.7277 1.30312 15.7123 2.28769C16.6969 3.27226 17.25 4.60761 17.25 6V10.5H15.75V6C15.75 5.00544 15.3549 4.05161 14.6517 3.34835C13.9484 2.64509 12.9946 2.25 12 2.25C11.0054 2.25 10.0516 2.64509 9.34835 3.34835C8.64509 4.05161 8.25 5.00544 8.25 6V10.5H6.75V6Z" fill="#495057"/>
</svg>
