<svg width="24" height="24" viewBox="0 0 20 24" fill="none" xmlns="http://www.w3.org/2000/svg">
<path fill-rule="evenodd" clip-rule="evenodd" d="M17.0989 14.42C17.3639 13.6408 17.4987 12.8234 17.4979 12.0005V10.5005C17.4979 10.3016 17.4189 10.1108 17.2782 9.97013C17.1376 9.82948 16.9468 9.75046 16.7479 9.75046C16.549 9.75046 16.3582 9.82948 16.2176 9.97013C16.0769 10.1108 15.9979 10.3016 15.9979 10.5005V12.0005C15.9979 12.4115 15.9574 12.8105 15.8779 13.199L17.0989 14.42ZM13.3159 17C12.4119 17.6 11.3621 17.9436 10.2783 17.9943C9.19454 18.045 8.11726 17.8009 7.16119 17.2879C6.20512 16.775 5.40604 16.0123 4.84901 15.0813C4.29198 14.1502 3.99784 13.0855 3.99792 12.0005V10.5005C3.99792 10.3016 3.9189 10.1108 3.77825 9.97013C3.6376 9.82948 3.44683 9.75046 3.24792 9.75046C3.04901 9.75046 2.85824 9.82948 2.71759 9.97013C2.57694 10.1108 2.49792 10.3016 2.49792 10.5005V12.0005C2.4979 13.8598 3.1885 15.6528 4.43574 17.0317C5.68298 18.4106 7.39795 19.277 9.24792 19.463V22.5005H4.74792C4.54901 22.5005 4.35824 22.5795 4.21759 22.7201C4.07694 22.8608 3.99792 23.0515 3.99792 23.2505C3.99792 23.4494 4.07694 23.6401 4.21759 23.7808C4.35824 23.9214 4.54901 24.0005 4.74792 24.0005H15.2479C15.4468 24.0005 15.6376 23.9214 15.7782 23.7808C15.9189 23.6401 15.9979 23.4494 15.9979 23.2505C15.9979 23.0515 15.9189 22.8608 15.7782 22.7201C15.6376 22.5795 15.4468 22.5005 15.2479 22.5005H10.7479V19.463C12.0642 19.3328 13.3222 18.855 14.3929 18.0785L13.3159 17ZM14.4979 11.8205V4.50046C14.4987 3.43329 14.1202 2.40056 13.43 1.58663C12.7398 0.77271 11.7828 0.230572 10.7298 0.0569998C9.67686 -0.116572 8.59648 0.0897201 7.68154 0.63905C6.76661 1.18838 6.07668 2.04499 5.73492 3.05596L7.00242 4.32346C7.04513 3.54201 7.39152 2.80818 7.96769 2.27855C8.54387 1.74891 9.3042 1.46539 10.0865 1.48849C10.8688 1.51158 11.611 1.83946 12.155 2.40216C12.6989 2.96487 13.0014 3.71785 12.9979 4.50046V10.319L14.4979 11.819V11.8205ZM11.1049 14.7905L12.2269 15.9125C11.5423 16.3028 10.7671 16.5066 9.97905 16.5033C9.19096 16.5 8.41755 16.2897 7.73622 15.8936C7.05489 15.4975 6.48953 14.9294 6.09672 14.2462C5.70391 13.563 5.49742 12.7886 5.49792 12.0005V9.18196L6.99792 10.682V12.0005C6.99764 12.4902 7.11727 12.9726 7.34635 13.4055C7.57544 13.8383 7.90701 14.2085 8.31213 14.4837C8.71724 14.7589 9.18357 14.9308 9.6704 14.9842C10.1572 15.0377 10.6497 14.9712 11.1049 14.7905ZM18.4669 20.0315L0.466919 2.03146L1.52892 0.969462L19.5289 18.9695L18.4669 20.03V20.0315Z" fill="currentColor"/>
</svg>
