<svg width="16" height="16" viewBox="0 0 24 24" fill="none" xmlns="http://www.w3.org/2000/svg">
<path d="M9 19.5C9 21.1575 7.32 22.5 5.25 22.5C3.18 22.5 1.5 21.1575 1.5 19.5C1.5 17.844 3.18 16.5 5.25 16.5C7.32 16.5 9 17.844 9 19.5ZM22.5 16.5C22.5 18.1575 20.82 19.5 18.75 19.5C16.68 19.5 15 18.1575 15 16.5C15 14.8425 16.68 13.5 18.75 13.5C20.82 13.5 22.5 14.8425 22.5 16.5Z" fill="#6C757D"/>
<path fill-rule="evenodd" clip-rule="evenodd" d="M21 16.5V3H22.5V16.5H21ZM9 4.5V19.5H7.5V4.5H9Z" fill="#6C757D"/>
<path d="M7.5 4.35749C7.5 3.98563 7.63812 3.62703 7.88756 3.35125C8.13701 3.07547 8.48001 2.90218 8.85 2.86499L20.85 1.66499C21.0586 1.64403 21.2692 1.66702 21.4684 1.73248C21.6676 1.79794 21.8508 1.90442 22.0062 2.04505C22.1617 2.18568 22.286 2.35733 22.371 2.54894C22.4561 2.74055 22.5 2.94785 22.5 3.15749V4.49999L7.5 5.99999V4.35749Z" fill="#6C757D"/>
</svg>
