<svg width="30" height="30" viewBox="0 0 37 37" fill="none" xmlns="http://www.w3.org/2000/svg">
<path d="M12.875 8.375C13.7701 8.375 14.6286 8.73058 15.2615 9.36351C15.8944 9.99645 16.25 10.8549 16.25 11.75V25.25C16.25 26.1451 15.8944 27.0036 15.2615 27.6365C14.6286 28.2694 13.7701 28.625 12.875 28.625C11.9799 28.625 11.1214 28.2694 10.4885 27.6365C9.85558 27.0036 9.5 26.1451 9.5 25.25V11.75C9.5 10.8549 9.85558 9.99645 10.4885 9.36351C11.1214 8.73058 11.9799 8.375 12.875 8.375ZM24.125 8.375C25.0201 8.375 25.8786 8.73058 26.5115 9.36351C27.1444 9.99645 27.5 10.8549 27.5 11.75V25.25C27.5 26.1451 27.1444 27.0036 26.5115 27.6365C25.8786 28.2694 25.0201 28.625 24.125 28.625C23.2299 28.625 22.3714 28.2694 21.7385 27.6365C21.1056 27.0036 20.75 26.1451 20.75 25.25V11.75C20.75 10.8549 21.1056 9.99645 21.7385 9.36351C22.3714 8.73058 23.2299 8.375 24.125 8.375Z" fill="#DEE2E6"/>
</svg>
