<svg width="19" height="18" viewBox="0 0 19 18" fill="none" xmlns="http://www.w3.org/2000/svg">
<path fill-rule="evenodd" clip-rule="evenodd" d="M2 18C2 18 0.5 18 0.5 16.5C0.5 15 2 10.5 9.5 10.5C17 10.5 18.5 15 18.5 16.5C18.5 18 17 18 17 18H2ZM9.5 9C10.6935 9 11.8381 8.52589 12.682 7.68198C13.5259 6.83807 14 5.69347 14 4.5C14 3.30653 13.5259 2.16193 12.682 1.31802C11.8381 0.474106 10.6935 0 9.5 0C8.30653 0 7.16193 0.474106 6.31802 1.31802C5.47411 2.16193 5 3.30653 5 4.5C5 5.69347 5.47411 6.83807 6.31802 7.68198C7.16193 8.52589 8.30653 9 9.5 9Z" fill="currentColor"/>
</svg>
