<svg width="20" height="16" viewBox="0 0 20 16" fill="none" xmlns="http://www.w3.org/2000/svg">
<path d="M12.6185 12.3502L19.4705 7.42871C19.6319 7.33334 19.7656 7.19755 19.8585 7.03473C19.9515 6.87191 20.0003 6.68768 20.0003 6.50021C20.0003 6.31275 19.9515 6.12852 19.8585 5.9657C19.7656 5.80288 19.6319 5.66709 19.4705 5.57171L12.6185 0.650214C12.4552 0.554142 12.2693 0.502996 12.0798 0.501969C11.8903 0.500941 11.7039 0.550069 11.5396 0.644364C11.3752 0.73866 11.2387 0.874766 11.1439 1.03887C11.0492 1.20297 10.9995 1.38922 11 1.57871V3.50021C8.75 3.50021 2 3.50022 0.5 15.5002C4.25 8.75022 11 9.50021 11 9.50021V11.4217C11 12.2617 11.909 12.7687 12.6185 12.3517V12.3502Z" fill="#CED4DA"/>
</svg>
