<svg width="24" height="24" viewBox="0 0 24 24" fill="none" xmlns="http://www.w3.org/2000/svg">
<g clip-path="url(#clip0_47_1045)">
<path fill-rule="evenodd" clip-rule="evenodd" d="M13.2665 2.45034C12.8975 1.19784 11.1245 1.19784 10.7555 2.45034L10.6145 2.92884C10.4959 3.33075 10.2889 3.70106 10.0087 4.01262C9.72845 4.32418 9.38207 4.56911 8.99492 4.72946C8.60776 4.88981 8.18964 4.96153 7.77118 4.93936C7.35272 4.9172 6.94452 4.8017 6.57648 4.60134L6.13848 4.36134C4.99248 3.73884 3.73848 4.99133 4.36248 6.13884L4.60098 6.57684C4.80134 6.94488 4.91684 7.35308 4.93901 7.77154C4.96118 8.19 4.88946 8.60812 4.72911 8.99527C4.56875 9.38242 4.32382 9.7288 4.01226 10.009C3.7007 10.2893 3.3304 10.4963 2.92848 10.6148L2.44998 10.7558C1.19748 11.1248 1.19748 12.8978 2.44998 13.2668L2.92848 13.4078C3.33061 13.5264 3.70111 13.7334 4.01283 14.0137C4.32455 14.2941 4.56958 14.6406 4.72995 15.028C4.89033 15.4153 4.96198 15.8336 4.93967 16.2523C4.91735 16.6709 4.80163 17.0792 4.60098 17.4473L4.36098 17.8838C3.73848 19.0298 4.99098 20.2838 6.13848 19.6598L6.57648 19.4213C6.94462 19.221 7.35292 19.1056 7.77146 19.0835C8.19001 19.0614 8.60818 19.1333 8.99536 19.2938C9.38253 19.4543 9.72889 19.6994 10.009 20.0111C10.2892 20.3228 10.4961 20.6933 10.6145 21.0953L10.7555 21.5723C11.1245 22.8248 12.8975 22.8248 13.2665 21.5723L13.4075 21.0938C13.526 20.6917 13.733 20.3212 14.0134 20.0095C14.2937 19.6978 14.6403 19.4527 15.0276 19.2924C15.4149 19.132 15.8333 19.0603 16.2519 19.0827C16.6705 19.105 17.0789 19.2207 17.447 19.4213L17.8835 19.6613C19.0295 20.2838 20.2835 19.0313 19.6595 17.8838L19.421 17.4473C19.2204 17.0791 19.1047 16.6707 19.0825 16.252C19.0602 15.8333 19.132 15.4149 19.2926 15.0275C19.4531 14.6401 19.6983 14.2936 20.0102 14.0134C20.3221 13.7331 20.6927 13.5262 21.095 13.4078L21.572 13.2668C22.8245 12.8978 22.8245 11.1248 21.572 10.7558L21.0935 10.6148C20.6916 10.4963 20.3213 10.2893 20.0097 10.009C19.6981 9.7288 19.4532 9.38242 19.2929 8.99527C19.1325 8.60812 19.0608 8.19 19.083 7.77154C19.1051 7.35308 19.2206 6.94488 19.421 6.57684L19.661 6.13884C20.2835 4.99284 19.031 3.73883 17.8835 4.36283L17.447 4.60134C17.0788 4.80226 16.6704 4.91821 16.2515 4.94068C15.8327 4.96314 15.4142 4.89155 15.0266 4.73115C14.6391 4.57076 14.2924 4.32563 14.012 4.01375C13.7315 3.70188 13.5245 3.33117 13.406 2.92884L13.265 2.45034H13.2665ZM9.31698 2.02584C10.1075 -0.659165 13.9145 -0.659165 14.705 2.02584L14.846 2.50433C14.9012 2.69176 14.9976 2.86446 15.1283 3.00977C15.2589 3.15508 15.4204 3.26932 15.6009 3.34411C15.7814 3.41891 15.9763 3.45236 16.1714 3.44201C16.3666 3.43167 16.5569 3.37779 16.7285 3.28434L17.1665 3.04434C19.6265 1.70634 22.3175 4.39584 20.9765 6.85584L20.738 7.29384C20.6445 7.46542 20.5906 7.65575 20.5803 7.85087C20.57 8.04598 20.6034 8.24094 20.6782 8.42145C20.753 8.60196 20.8672 8.76344 21.0125 8.89406C21.1579 9.02468 21.3306 9.12113 21.518 9.17634L21.9965 9.31734C24.6815 10.1078 24.6815 13.9148 21.9965 14.7053L21.518 14.8463C21.3306 14.9015 21.1579 14.998 21.0125 15.1286C20.8672 15.2592 20.753 15.4207 20.6782 15.6012C20.6034 15.7817 20.57 15.9767 20.5803 16.1718C20.5906 16.3669 20.6445 16.5572 20.738 16.7288L20.978 17.1668C22.3175 19.6268 19.625 22.3178 17.1665 20.9768L16.7285 20.7383C16.5569 20.6449 16.3666 20.591 16.1714 20.5807C15.9763 20.5703 15.7814 20.6038 15.6009 20.6786C15.4204 20.7534 15.2589 20.8676 15.1283 21.0129C14.9976 21.1582 14.9012 21.3309 14.846 21.5183L14.705 21.9968C13.9145 24.6818 10.1075 24.6818 9.31698 21.9968L9.17598 21.5183C9.12078 21.3309 9.02433 21.1582 8.89371 21.0129C8.76308 20.8676 8.6016 20.7534 8.42109 20.6786C8.24058 20.6038 8.04563 20.5703 7.85051 20.5807C7.6554 20.591 7.46507 20.6449 7.29348 20.7383L6.85548 20.9783C4.39548 22.3178 1.70598 19.6253 3.04548 17.1668L3.28398 16.7288C3.37744 16.5572 3.43131 16.3669 3.44166 16.1718C3.452 15.9767 3.41855 15.7817 3.34376 15.6012C3.26897 15.4207 3.15473 15.2592 3.00942 15.1286C2.86411 14.998 2.69141 14.9015 2.50398 14.8463L2.02548 14.7053C-0.65952 13.9148 -0.65952 10.1078 2.02548 9.31734L2.50398 9.17634C2.69141 9.12113 2.86411 9.02468 3.00942 8.89406C3.15473 8.76344 3.26897 8.60196 3.34376 8.42145C3.41855 8.24094 3.452 8.04598 3.44166 7.85087C3.43131 7.65575 3.37744 7.46542 3.28398 7.29384L3.04398 6.85584C1.70598 4.39584 4.39698 1.70634 6.85548 3.04584L7.29348 3.28434C7.46507 3.37779 7.6554 3.43167 7.85051 3.44201C8.04563 3.45236 8.24058 3.41891 8.42109 3.34411C8.6016 3.26932 8.76308 3.15508 8.89371 3.00977C9.02433 2.86446 9.12078 2.69176 9.17598 2.50433L9.31698 2.02584Z" fill="#DEE2E6"/>
<path fill-rule="evenodd" clip-rule="evenodd" d="M11.9999 8.63086C11.1064 8.63086 10.2494 8.98581 9.61762 9.61762C8.98581 10.2494 8.63087 11.1063 8.63087 11.9999C8.63087 12.8934 8.98581 13.7503 9.61762 14.3821C10.2494 15.0139 11.1064 15.3689 11.9999 15.3689C12.8934 15.3689 13.7503 15.0139 14.3821 14.3821C15.0139 13.7503 15.3689 12.8934 15.3689 11.9999C15.3689 11.1063 15.0139 10.2494 14.3821 9.61762C13.7503 8.98581 12.8934 8.63086 11.9999 8.63086ZM7.13087 11.9999C7.13087 11.3605 7.25681 10.7273 7.5015 10.1366C7.74619 9.54584 8.10483 9.00909 8.55696 8.55696C9.00909 8.10483 9.54585 7.74618 10.1366 7.50149C10.7273 7.2568 11.3605 7.13086 11.9999 7.13086C12.6393 7.13086 13.2724 7.2568 13.8632 7.50149C14.4539 7.74618 14.9906 8.10483 15.4428 8.55696C15.8949 9.00909 16.2535 9.54584 16.4982 10.1366C16.7429 10.7273 16.8689 11.3605 16.8689 11.9999C16.8689 13.2912 16.3559 14.5296 15.4428 15.4428C14.5297 16.3559 13.2912 16.8689 11.9999 16.8689C10.7085 16.8689 9.47008 16.3559 8.55696 15.4428C7.64385 14.5296 7.13087 13.2912 7.13087 11.9999Z" fill="#DEE2E6"/>
</g>
<defs>
<clipPath id="clip0_47_1045">
<rect width="24" height="24" fill="white"/>
</clipPath>
</defs>
</svg>
