<svg width="16" height="16" viewBox="0 0 16 16" fill="none" xmlns="http://www.w3.org/2000/svg">
<path fill-rule="evenodd" clip-rule="evenodd" d="M13.4964 0.995431C13.0985 0.995431 12.717 1.15347 12.4357 1.43477C12.1544 1.71608 11.9964 2.09761 11.9964 2.49543C11.9964 2.89326 12.1544 3.27479 12.4357 3.55609C12.717 3.8374 13.0985 3.99543 13.4964 3.99543C13.8942 3.99543 14.2757 3.8374 14.557 3.55609C14.8383 3.27479 14.9964 2.89326 14.9964 2.49543C14.9964 2.09761 14.8383 1.71608 14.557 1.43477C14.2757 1.15347 13.8942 0.995431 13.4964 0.995431ZM10.9964 2.49543C10.9963 1.90886 11.2025 1.34095 11.5788 0.891042C11.9552 0.441138 12.4778 0.137895 13.0551 0.0343683C13.6325 -0.0691581 14.2279 0.0336246 14.7371 0.324734C15.2463 0.615843 15.637 1.07674 15.8407 1.62679C16.0444 2.17684 16.0483 2.78101 15.8516 3.3336C15.6548 3.8862 15.2701 4.35202 14.7646 4.64957C14.2591 4.94713 13.665 5.05747 13.0864 4.96128C12.5078 4.8651 11.9814 4.56852 11.5994 4.12343L4.88136 7.24343C5.0358 7.73287 5.0358 8.25799 4.88136 8.74743L11.5994 11.8674C12.0032 11.3978 12.567 11.0947 13.1816 11.0171C13.7961 10.9394 14.4176 11.0927 14.9255 11.4471C15.4335 11.8016 15.7918 12.332 15.931 12.9356C16.0702 13.5391 15.9804 14.1729 15.6789 14.714C15.3775 15.2551 14.8859 15.6651 14.2994 15.8644C13.713 16.0637 13.0734 16.0382 12.5046 15.7928C11.9359 15.5475 11.4785 15.0997 11.2211 14.5363C10.9637 13.9729 10.9246 13.334 11.1114 12.7434L4.39336 9.62343C4.06079 10.011 3.61751 10.2874 3.12314 10.4155C2.62877 10.5436 2.10702 10.5172 1.6281 10.3399C1.14917 10.1626 0.736035 9.84286 0.444266 9.42372C0.152498 9.00457 -0.00390625 8.50613 -0.00390625 7.99543C-0.00390625 7.48473 0.152498 6.98629 0.444266 6.56714C0.736035 6.148 1.14917 5.82827 1.6281 5.65095C2.10702 5.47364 2.62877 5.44725 3.12314 5.57535C3.61751 5.70344 4.06079 5.97986 4.39336 6.36743L11.1114 3.24743C11.0349 3.0041 10.9961 2.7505 10.9964 2.49543V2.49543ZM2.49636 6.49543C2.09853 6.49543 1.717 6.65347 1.4357 6.93477C1.15439 7.21608 0.996359 7.59761 0.996359 7.99543C0.996359 8.39326 1.15439 8.77479 1.4357 9.05609C1.717 9.3374 2.09853 9.49543 2.49636 9.49543C2.89418 9.49543 3.27571 9.3374 3.55702 9.05609C3.83832 8.77479 3.99636 8.39326 3.99636 7.99543C3.99636 7.59761 3.83832 7.21608 3.55702 6.93477C3.27571 6.65347 2.89418 6.49543 2.49636 6.49543ZM13.4964 11.9954C13.0985 11.9954 12.717 12.1535 12.4357 12.4348C12.1544 12.7161 11.9964 13.0976 11.9964 13.4954C11.9964 13.8933 12.1544 14.2748 12.4357 14.5561C12.717 14.8374 13.0985 14.9954 13.4964 14.9954C13.8942 14.9954 14.2757 14.8374 14.557 14.5561C14.8383 14.2748 14.9964 13.8933 14.9964 13.4954C14.9964 13.0976 14.8383 12.7161 14.557 12.4348C14.2757 12.1535 13.8942 11.9954 13.4964 11.9954Z" fill="#101112"/>
</svg>
