<svg width="22" height="22" viewBox="0 0 28 28" fill="none" xmlns="http://www.w3.org/2000/svg">
<path fill-rule="evenodd" clip-rule="evenodd" d="M14.75 19.5C14.75 20.0967 14.5129 20.669 14.091 21.091C13.669 21.5129 13.0967 21.75 12.5 21.75C11.9033 21.75 11.331 21.5129 10.909 21.091C10.4871 20.669 10.25 20.0967 10.25 19.5C10.25 18.9033 10.4871 18.331 10.909 17.909C11.331 17.4871 11.9033 17.25 12.5 17.25C13.0967 17.25 13.669 17.4871 14.091 17.909C14.5129 18.331 14.75 18.9033 14.75 19.5ZM14.75 12C14.75 12.5967 14.5129 13.169 14.091 13.591C13.669 14.0129 13.0967 14.25 12.5 14.25C11.9033 14.25 11.331 14.0129 10.909 13.591C10.4871 13.169 10.25 12.5967 10.25 12C10.25 11.4033 10.4871 10.831 10.909 10.409C11.331 9.98705 11.9033 9.75 12.5 9.75C13.0967 9.75 13.669 9.98705 14.091 10.409C14.5129 10.831 14.75 11.4033 14.75 12ZM14.75 4.5C14.75 5.09674 14.5129 5.66903 14.091 6.09099C13.669 6.51295 13.0967 6.75 12.5 6.75C11.9033 6.75 11.331 6.51295 10.909 6.09099C10.4871 5.66903 10.25 5.09674 10.25 4.5C10.25 3.90326 10.4871 3.33097 10.909 2.90901C11.331 2.48705 11.9033 2.25 12.5 2.25C13.0967 2.25 13.669 2.48705 14.091 2.90901C14.5129 3.33097 14.75 3.90326 14.75 4.5Z" fill="#DEE2E6"/>
</svg>
