<svg width="100%" height="100%" viewBox="0 0 24 24" fill="none" xmlns="http://www.w3.org/2000/svg">
<path d="M1.75 13.5C1.75 12.7044 2.06607 11.9413 2.62868 11.3787C3.19129 10.8161 3.95435 10.5 4.75 10.5H15.25C16.0456 10.5 16.8087 10.8161 17.3713 11.3787C17.9339 11.9413 18.25 12.7044 18.25 13.5V21C18.25 21.7956 17.9339 22.5587 17.3713 23.1213C16.8087 23.6839 16.0456 24 15.25 24H4.75C3.95435 24 3.19129 23.6839 2.62868 23.1213C2.06607 22.5587 1.75 21.7956 1.75 21V13.5Z" fill="currentColor"/>
<path fill-rule="evenodd" clip-rule="evenodd" d="M12.75 6C12.75 4.60761 13.3031 3.27226 14.2877 2.28769C15.2723 1.30312 16.6076 0.75 18 0.75C19.3924 0.75 20.7277 1.30312 21.7123 2.28769C22.6969 3.27226 23.25 4.60761 23.25 6V10.5H21.75V6C21.75 5.00544 21.3549 4.05161 20.6517 3.34835C19.9484 2.64509 18.9946 2.25 18 2.25C17.0054 2.25 16.0516 2.64509 15.3483 3.34835C14.6451 4.05161 14.25 5.00544 14.25 6V10.5H12.75V6Z" fill="currentColor"/>
</svg>
